<svg id="icon-lingdang1-copy-copy" viewBox="0 0 1024 1024" xmlns="http://www.w3.org/2000/svg" version="1.1">
    <path d="M658.022 877.548c-0.41 45.117-17.9 81.653-51.118 110.858-27.361 24.043-59.494 35.02-95.662 35.205-82.063 0.43-147.149-70.165-145.449-146.063h-7.127c-82.35 0-164.7 0.02-247.07-0.021-38.933-0.02-70.41-28.651-74.077-67.236-0.327-3.236-0.368-5.939 2.724-8.58 81.162-68.466 129.618-156.652 155.464-258.315 10.834-42.66 17.572-86.037 20.603-129.905 2.007-29.389 2.867-58.86 3.666-88.269 1.208-45.465 15.524-86.466 40.96-123.78 46.715-68.404 111.452-108.299 192.88-121.795 2.417-0.43 4.813-0.922 7.7-1.475-9.215-28.713-3.563-53.084 22.856-69.345 19.354-11.94 40.039-11.12 58.573 2.007 23.655 16.814 28.57 40.264 19.436 67.42 24.842 3.768 48.845 9.42 71.762 18.862 77.353 31.867 130.785 87 159.273 165.724 8.253 22.917 10.71 46.94 10.793 71.25 0.245 73.667 7.7 146.473 26.235 217.907 19.333 74.322 53.043 141.476 102.83 200.029 14.93 17.612 32.788 32.768 49.5 48.803 2.887 2.765 4.24 5.182 3.809 9.237-4.035 39.117-35.164 67.42-74.547 67.461-82.166 0.02-164.311 0-246.518 0-2.232 0.02-4.526 0.02-7.496 0.02zM507.986 977.94c-0.041 0 0.696-0.02 1.474 0 8.152 0.205 11.572-2.416 11.736-8.95 0.163-6.348-2.827-8.54-10.752-9.44-8.07-0.881-16.303-1.741-24.003-4.076-27.34-8.376-55.972-36.905-56.586-77.087-0.103-7.25-3.134-10.178-9.462-9.974-6.103 0.144-8.909 3.584-8.745 10.732 1.065 53.74 42.189 96.215 96.338 98.795z" fill="">
    </path>
</svg>